<?xml version="1.0" encoding="UTF-8" standalone="no"?>
<!DOCTYPE svg PUBLIC "-//W3C//DTD SVG 1.1//EN"
 "http://www.w3.org/Graphics/SVG/1.1/DTD/svg11.dtd">
<!-- Generated by graphviz version 2.43.0 (0)
 -->
<!-- Title: G Pages: 1 -->
<svg width="1210pt" height="190pt"
 viewBox="0.00 0.00 1210.00 190.00" xmlns="http://www.w3.org/2000/svg" xmlns:xlink="http://www.w3.org/1999/xlink">
<g id="graph0" class="graph" transform="scale(1 1) rotate(0) translate(4 186)">
<title>G</title>
<polygon fill="white" stroke="transparent" points="-4,4 -4,-186 1206,-186 1206,4 -4,4"/>
<!-- lidar -->
<g id="node1" class="node">
<title>lidar</title>
<path fill="#d4e6f1" stroke="#2e86c1" d="M72,-82C72,-82 12,-82 12,-82 6,-82 0,-76 0,-70 0,-70 0,-58 0,-58 0,-52 6,-46 12,-46 12,-46 72,-46 72,-46 78,-46 84,-52 84,-58 84,-58 84,-70 84,-70 84,-76 78,-82 72,-82"/>
<text text-anchor="middle" x="42" y="-60.9" font-family="Helvetica,sans-Serif" font-size="12.00">UniLidar L2</text>
</g>
<!-- raw -->
<g id="node2" class="node">
<title>raw</title>
<path fill="#d5f5e3" stroke="#27ae60" d="M249,-82C249,-82 153,-82 153,-82 147,-82 141,-76 141,-70 141,-70 141,-58 141,-58 141,-52 147,-46 153,-46 153,-46 249,-46 249,-46 255,-46 261,-52 261,-58 261,-58 261,-70 261,-70 261,-76 255,-82 249,-82"/>
<text text-anchor="middle" x="201" y="-67.4" font-family="Helvetica,sans-Serif" font-size="12.00">Raw scan rings +</text>
<text text-anchor="middle" x="201" y="-54.4" font-family="Helvetica,sans-Serif" font-size="12.00">IMU packets</text>
</g>
<!-- lidar&#45;&gt;raw -->
<g id="edge1" class="edge">
<title>lidar&#45;&gt;raw</title>
<path fill="none" stroke="#555555" d="M84.25,-64C98.41,-64 114.68,-64 130.45,-64"/>
<polygon fill="#555555" stroke="#555555" points="130.72,-67.5 140.72,-64 130.72,-60.5 130.72,-67.5"/>
<text text-anchor="middle" x="112.5" y="-67" font-family="Helvetica,sans-Serif" font-size="10.00">USB</text>
</g>
<!-- sdk -->
<g id="node3" class="node">
<title>sdk</title>
<path fill="#d5f5e3" stroke="#27ae60" d="M433,-87.5C433,-87.5 310,-87.5 310,-87.5 304,-87.5 298,-81.5 298,-75.5 298,-75.5 298,-52.5 298,-52.5 298,-46.5 304,-40.5 310,-40.5 310,-40.5 433,-40.5 433,-40.5 439,-40.5 445,-46.5 445,-52.5 445,-52.5 445,-75.5 445,-75.5 445,-81.5 439,-87.5 433,-87.5"/>
<text text-anchor="middle" x="371.5" y="-73.9" font-family="Helvetica,sans-Serif" font-size="12.00">UniLidar SDK</text>
<text text-anchor="middle" x="371.5" y="-60.9" font-family="Helvetica,sans-Serif" font-size="12.00">(accumulate 25 rings,</text>
<text text-anchor="middle" x="371.5" y="-47.9" font-family="Helvetica,sans-Serif" font-size="12.00">range/angle fix)</text>
</g>
<!-- raw&#45;&gt;sdk -->
<g id="edge2" class="edge">
<title>raw&#45;&gt;sdk</title>
<path fill="none" stroke="#555555" d="M261.41,-64C269.94,-64 278.85,-64 287.74,-64"/>
<polygon fill="#555555" stroke="#555555" points="287.75,-67.5 297.75,-64 287.75,-60.5 287.75,-67.5"/>
</g>
<!-- topics -->
<g id="node4" class="node">
<title>topics</title>
<path fill="#d5f5e3" stroke="#27ae60" d="M606,-87.5C606,-87.5 529,-87.5 529,-87.5 523,-87.5 517,-81.5 517,-75.5 517,-75.5 517,-52.5 517,-52.5 517,-46.5 523,-40.5 529,-40.5 529,-40.5 606,-40.5 606,-40.5 612,-40.5 618,-46.5 618,-52.5 618,-52.5 618,-75.5 618,-75.5 618,-81.5 612,-87.5 606,-87.5"/>
<text text-anchor="middle" x="567.5" y="-73.9" font-family="Helvetica,sans-Serif" font-size="12.00">ROS2 topics</text>
<text text-anchor="middle" x="567.5" y="-60.9" font-family="Helvetica,sans-Serif" font-size="12.00">/unilidar/cloud</text>
<text text-anchor="middle" x="567.5" y="-47.9" font-family="Helvetica,sans-Serif" font-size="12.00">/unilidar/imu</text>
</g>
<!-- sdk&#45;&gt;topics -->
<g id="edge3" class="edge">
<title>sdk&#45;&gt;topics</title>
<path fill="none" stroke="#555555" d="M445.01,-64C465.27,-64 487.04,-64 506.49,-64"/>
<polygon fill="#555555" stroke="#555555" points="506.72,-67.5 516.72,-64 506.72,-60.5 506.72,-67.5"/>
<text text-anchor="middle" x="481" y="-67" font-family="Helvetica,sans-Serif" font-size="10.00">publish</text>
</g>
<!-- lio -->
<g id="node5" class="node">
<title>lio</title>
<path fill="#fadbd8" stroke="#e74c3c" d="M856,-128C856,-128 713,-128 713,-128 707,-128 701,-122 701,-116 701,-116 701,-104 701,-104 701,-98 707,-92 713,-92 713,-92 856,-92 856,-92 862,-92 868,-98 868,-104 868,-104 868,-116 868,-116 868,-122 862,-128 856,-128"/>
<text text-anchor="middle" x="784.5" y="-113.4" font-family="Helvetica,sans-Serif" font-size="12.00">FAST&#45;LIO2 backend</text>
<text text-anchor="middle" x="784.5" y="-100.4" font-family="Helvetica,sans-Serif" font-size="12.00"> deskew · state est · map</text>
</g>
<!-- topics&#45;&gt;lio -->
<g id="edge4" class="edge">
<title>topics&#45;&gt;lio</title>
<path fill="none" stroke="#555555" d="M618.1,-74.61C639.77,-79.25 665.93,-84.84 690.98,-90.2"/>
<polygon fill="#555555" stroke="#555555" points="690.37,-93.65 700.88,-92.32 691.83,-86.81 690.37,-93.65"/>
<text text-anchor="middle" x="659.5" y="-91" font-family="Helvetica,sans-Serif" font-size="10.00">subscribe</text>
</g>
<!-- viz -->
<g id="node8" class="node">
<title>viz</title>
<path fill="#e8daef" stroke="#9b59b6" d="M1190,-128C1190,-128 1097,-128 1097,-128 1091,-128 1085,-122 1085,-116 1085,-116 1085,-104 1085,-104 1085,-98 1091,-92 1097,-92 1097,-92 1190,-92 1190,-92 1196,-92 1202,-98 1202,-104 1202,-104 1202,-116 1202,-116 1202,-122 1196,-128 1190,-128"/>
<text text-anchor="middle" x="1143.5" y="-113.4" font-family="Helvetica,sans-Serif" font-size="12.00">RViz&#45;like viewer</text>
<text text-anchor="middle" x="1143.5" y="-100.4" font-family="Helvetica,sans-Serif" font-size="12.00"> live visualization</text>
</g>
<!-- topics&#45;&gt;viz -->
<g id="edge7" class="edge">
<title>topics&#45;&gt;viz</title>
<path fill="none" stroke="#555555" d="M618.24,-62.09C705.76,-59.59 892.73,-58.11 1048,-83 1057.73,-84.56 1067.88,-86.79 1077.76,-89.31"/>
<polygon fill="#555555" stroke="#555555" points="1076.97,-92.72 1087.53,-91.91 1078.77,-85.95 1076.97,-92.72"/>
<text text-anchor="middle" x="916.5" y="-73" font-family="Helvetica,sans-Serif" font-size="10.00">live preview</text>
</g>
<!-- bag -->
<g id="node9" class="node">
<title>bag</title>
<path fill="#e8daef" stroke="#9b59b6" d="M806.5,-36C806.5,-36 762.5,-36 762.5,-36 756.5,-36 750.5,-30 750.5,-24 750.5,-24 750.5,-12 750.5,-12 750.5,-6 756.5,0 762.5,0 762.5,0 806.5,0 806.5,0 812.5,0 818.5,-6 818.5,-12 818.5,-12 818.5,-24 818.5,-24 818.5,-30 812.5,-36 806.5,-36"/>
<text text-anchor="middle" x="784.5" y="-21.4" font-family="Helvetica,sans-Serif" font-size="12.00">ros2 bag</text>
<text text-anchor="middle" x="784.5" y="-8.4" font-family="Helvetica,sans-Serif" font-size="12.00">record</text>
</g>
<!-- topics&#45;&gt;bag -->
<g id="edge8" class="edge">
<title>topics&#45;&gt;bag</title>
<path fill="none" stroke="#555555" d="M618.25,-44.22C624.18,-42.27 630.19,-40.47 636,-39 670.54,-30.25 710.62,-24.84 740.27,-21.7"/>
<polygon fill="#555555" stroke="#555555" points="740.71,-25.18 750.3,-20.69 740,-18.21 740.71,-25.18"/>
<text text-anchor="middle" x="659.5" y="-42" font-family="Helvetica,sans-Serif" font-size="10.00">persist</text>
</g>
<!-- odom -->
<g id="node6" class="node">
<title>odom</title>
<path fill="#fcf3cf" stroke="#f1c40f" d="M1035,-182C1035,-182 978,-182 978,-182 972,-182 966,-176 966,-170 966,-170 966,-158 966,-158 966,-152 972,-146 978,-146 978,-146 1035,-146 1035,-146 1041,-146 1047,-152 1047,-158 1047,-158 1047,-170 1047,-170 1047,-176 1041,-182 1035,-182"/>
<text text-anchor="middle" x="1006.5" y="-167.4" font-family="Helvetica,sans-Serif" font-size="12.00">Odometry</text>
<text text-anchor="middle" x="1006.5" y="-154.4" font-family="Helvetica,sans-Serif" font-size="12.00">/Odometry</text>
</g>
<!-- lio&#45;&gt;odom -->
<g id="edge5" class="edge">
<title>lio&#45;&gt;odom</title>
<path fill="none" stroke="#555555" d="M859.06,-128.06C891.02,-135.9 927.6,-144.88 956.21,-151.9"/>
<polygon fill="#555555" stroke="#555555" points="955.43,-155.31 965.97,-154.3 957.1,-148.52 955.43,-155.31"/>
</g>
<!-- map -->
<g id="node7" class="node">
<title>map</title>
<path fill="#fcf3cf" stroke="#f1c40f" d="M1036,-128C1036,-128 977,-128 977,-128 971,-128 965,-122 965,-116 965,-116 965,-104 965,-104 965,-98 971,-92 977,-92 977,-92 1036,-92 1036,-92 1042,-92 1048,-98 1048,-104 1048,-104 1048,-116 1048,-116 1048,-122 1042,-128 1036,-128"/>
<text text-anchor="middle" x="1006.5" y="-113.4" font-family="Helvetica,sans-Serif" font-size="12.00">Local map</text>
<text text-anchor="middle" x="1006.5" y="-100.4" font-family="Helvetica,sans-Serif" font-size="12.00">/GlobalMap</text>
</g>
<!-- lio&#45;&gt;map -->
<g id="edge6" class="edge">
<title>lio&#45;&gt;map</title>
<path fill="none" stroke="#555555" d="M868.05,-110C897.09,-110 928.85,-110 954.53,-110"/>
<polygon fill="#555555" stroke="#555555" points="954.77,-113.5 964.77,-110 954.77,-106.5 954.77,-113.5"/>
</g>
<!-- odom&#45;&gt;viz -->
<g id="edge9" class="edge">
<title>odom&#45;&gt;viz</title>
<path fill="none" stroke="#555555" d="M1047.27,-148.09C1060.04,-142.98 1074.41,-137.24 1088.03,-131.79"/>
<polygon fill="#555555" stroke="#555555" points="1089.34,-135.03 1097.32,-128.07 1086.74,-128.53 1089.34,-135.03"/>
</g>
<!-- map&#45;&gt;viz -->
<g id="edge10" class="edge">
<title>map&#45;&gt;viz</title>
<path fill="none" stroke="#555555" d="M1048,-110C1056.36,-110 1065.37,-110 1074.39,-110"/>
<polygon fill="#555555" stroke="#555555" points="1074.56,-113.5 1084.56,-110 1074.56,-106.5 1074.56,-113.5"/>
</g>
</g>
</svg>
