<?xml version="1.0" encoding="UTF-8" standalone="no"?>
<!DOCTYPE svg PUBLIC "-//W3C//DTD SVG 1.1//EN"
 "http://www.w3.org/Graphics/SVG/1.1/DTD/svg11.dtd">
<!-- Generated by graphviz version 2.43.0 (0)
 -->
<!-- Title: G Pages: 1 -->
<svg width="627pt" height="578pt"
 viewBox="0.00 0.00 627.00 578.00" xmlns="http://www.w3.org/2000/svg" xmlns:xlink="http://www.w3.org/1999/xlink">
<g id="graph0" class="graph" transform="scale(1 1) rotate(0) translate(4 574)">
<title>G</title>
<polygon fill="white" stroke="transparent" points="-4,4 -4,-574 623,-574 623,4 -4,4"/>
<g id="clust1" class="cluster">
<title>cluster_hardware</title>
<polygon fill="#e8f4fc" stroke="#e8f4fc" points="97,-404 97,-562 411,-562 411,-404 97,-404"/>
<text text-anchor="middle" x="254" y="-546.8" font-family="Times,serif" font-size="14.00" fill="#1a5276">Hardware</text>
</g>
<g id="clust2" class="cluster">
<title>cluster_docker</title>
<polygon fill="#eafaf1" stroke="#eafaf1" points="8,-112 8,-375 407,-375 407,-112 8,-112"/>
<text text-anchor="middle" x="207.5" y="-359.8" font-family="Times,serif" font-size="14.00" fill="#1e8449">Docker Compose Runtime</text>
</g>
<g id="clust3" class="cluster">
<title>cluster_web</title>
<polygon fill="#fef9e7" stroke="#fef9e7" points="419,-487 419,-562 611,-562 611,-487 419,-487"/>
<text text-anchor="middle" x="515" y="-546.8" font-family="Times,serif" font-size="14.00" fill="#9a7d0a">Web&#45;based Operation</text>
</g>
<g id="clust4" class="cluster">
<title>cluster_output</title>
<polygon fill="#f5eef8" stroke="#f5eef8" points="193,-8 193,-83 601,-83 601,-8 193,-8"/>
<text text-anchor="middle" x="397" y="-67.8" font-family="Times,serif" font-size="14.00" fill="#7d3c98">Output</text>
</g>
<!-- lidar -->
<g id="node1" class="node">
<title>lidar</title>
<path fill="#d4e6f1" stroke="#2e86c1" d="M390.5,-531C390.5,-531 283.5,-531 283.5,-531 277.5,-531 271.5,-525 271.5,-519 271.5,-519 271.5,-507 271.5,-507 271.5,-501 277.5,-495 283.5,-495 283.5,-495 390.5,-495 390.5,-495 396.5,-495 402.5,-501 402.5,-507 402.5,-507 402.5,-519 402.5,-519 402.5,-525 396.5,-531 390.5,-531"/>
<text text-anchor="middle" x="337" y="-516.4" font-family="Helvetica,sans-Serif" font-size="12.00">Unitree UniLidar L2</text>
<text text-anchor="middle" x="337" y="-503.4" font-family="Helvetica,sans-Serif" font-size="12.00">(PointCloud + IMU)</text>
</g>
<!-- rk3588 -->
<g id="node2" class="node">
<title>rk3588</title>
<path fill="#d4e6f1" stroke="#2e86c1" d="M376,-448C376,-448 254,-448 254,-448 248,-448 242,-442 242,-436 242,-436 242,-424 242,-424 242,-418 248,-412 254,-412 254,-412 376,-412 376,-412 382,-412 388,-418 388,-424 388,-424 388,-436 388,-436 388,-442 382,-448 376,-448"/>
<text text-anchor="middle" x="315" y="-433.4" font-family="Helvetica,sans-Serif" font-size="12.00">RK3588 ARM64 board</text>
<text text-anchor="middle" x="315" y="-420.4" font-family="Helvetica,sans-Serif" font-size="12.00">(Docker runtime)</text>
</g>
<!-- lidar&#45;&gt;rk3588 -->
<g id="edge2" class="edge">
<title>lidar&#45;&gt;rk3588</title>
<path fill="none" stroke="#555555" d="M332.33,-494.82C329.42,-484.08 325.6,-470.03 322.29,-457.84"/>
<polygon fill="#555555" stroke="#555555" points="325.66,-456.89 319.66,-448.15 318.9,-458.72 325.66,-456.89"/>
<text text-anchor="middle" x="371" y="-469" font-family="Helvetica,sans-Serif" font-size="10.00">USB /dev/ttyUSB0</text>
</g>
<!-- sdk -->
<g id="node4" class="node">
<title>sdk</title>
<path fill="#d5f5e3" stroke="#27ae60" d="M382,-344C382,-344 248,-344 248,-344 242,-344 236,-338 236,-332 236,-332 236,-320 236,-320 236,-314 242,-308 248,-308 248,-308 382,-308 382,-308 388,-308 394,-314 394,-320 394,-320 394,-332 394,-332 394,-338 388,-344 382,-344"/>
<text text-anchor="middle" x="315" y="-329.4" font-family="Helvetica,sans-Serif" font-size="12.00">UniLidar SDK container</text>
<text text-anchor="middle" x="315" y="-316.4" font-family="Helvetica,sans-Serif" font-size="12.00">/ttyUSB0 → ROS2 topics</text>
</g>
<!-- rk3588&#45;&gt;sdk -->
<g id="edge3" class="edge">
<title>rk3588&#45;&gt;sdk</title>
<path fill="none" stroke="#555555" d="M315,-411.7C315,-395.92 315,-372.36 315,-354.09"/>
<polygon fill="#555555" stroke="#555555" points="318.5,-354.05 315,-344.05 311.5,-354.05 318.5,-354.05"/>
<text text-anchor="middle" x="336.5" y="-386" font-family="Helvetica,sans-Serif" font-size="10.00">raw data</text>
</g>
<!-- robot -->
<g id="node3" class="node">
<title>robot</title>
<path fill="#d4e6f1" stroke="#2e86c1" d="M241,-531C241,-531 117,-531 117,-531 111,-531 105,-525 105,-519 105,-519 105,-507 105,-507 105,-501 111,-495 117,-495 117,-495 241,-495 241,-495 247,-495 253,-501 253,-507 253,-507 253,-519 253,-519 253,-525 247,-531 241,-531"/>
<text text-anchor="middle" x="179" y="-516.4" font-family="Helvetica,sans-Serif" font-size="12.00">Mobile Robot Platform</text>
<text text-anchor="middle" x="179" y="-503.4" font-family="Helvetica,sans-Serif" font-size="12.00">12V power + chassis</text>
</g>
<!-- robot&#45;&gt;rk3588 -->
<g id="edge1" class="edge">
<title>robot&#45;&gt;rk3588</title>
<path fill="none" stroke="#555555" d="M194.88,-494.62C204.14,-485.23 216.45,-473.96 229,-466 237.08,-460.87 246.04,-456.24 255.04,-452.15"/>
<polygon fill="#555555" stroke="#555555" points="256.61,-455.29 264.39,-448.09 253.82,-448.87 256.61,-455.29"/>
<text text-anchor="middle" x="274.5" y="-469" font-family="Helvetica,sans-Serif" font-size="10.00">power + mounting</text>
</g>
<!-- lio -->
<g id="node5" class="node">
<title>lio</title>
<path fill="#d5f5e3" stroke="#27ae60" d="M382,-250C382,-250 234,-250 234,-250 228,-250 222,-244 222,-238 222,-238 222,-215 222,-215 222,-209 228,-203 234,-203 234,-203 382,-203 382,-203 388,-203 394,-209 394,-215 394,-215 394,-238 394,-238 394,-244 388,-250 382,-250"/>
<text text-anchor="middle" x="308" y="-236.4" font-family="Helvetica,sans-Serif" font-size="12.00">Lidar Odometry container</text>
<text text-anchor="middle" x="308" y="-223.4" font-family="Helvetica,sans-Serif" font-size="12.00">FAST&#45;LIO2 backend</text>
<text text-anchor="middle" x="308" y="-210.4" font-family="Helvetica,sans-Serif" font-size="12.00">cpuset: 6,7</text>
</g>
<!-- sdk&#45;&gt;lio -->
<g id="edge4" class="edge">
<title>sdk&#45;&gt;lio</title>
<path fill="none" stroke="#555555" d="M313.75,-307.57C312.82,-294.57 311.51,-276.43 310.38,-260.7"/>
<polygon fill="#555555" stroke="#555555" points="313.84,-260.01 309.64,-250.29 306.86,-260.51 313.84,-260.01"/>
<text text-anchor="middle" x="347" y="-282" font-family="Helvetica,sans-Serif" font-size="10.00">/unilidar/cloud</text>
<text text-anchor="middle" x="347" y="-271" font-family="Helvetica,sans-Serif" font-size="10.00">/unilidar/imu</text>
</g>
<!-- bag -->
<g id="node11" class="node">
<title>bag</title>
<path fill="#e8daef" stroke="#9b59b6" d="M581,-52C581,-52 459,-52 459,-52 453,-52 447,-46 447,-40 447,-40 447,-28 447,-28 447,-22 453,-16 459,-16 459,-16 581,-16 581,-16 587,-16 593,-22 593,-28 593,-28 593,-40 593,-40 593,-46 587,-52 581,-52"/>
<text text-anchor="middle" x="520" y="-30.9" font-family="Helvetica,sans-Serif" font-size="12.00">ROS2 Bag Recordings</text>
</g>
<!-- sdk&#45;&gt;bag -->
<g id="edge9" class="edge">
<title>sdk&#45;&gt;bag</title>
<path fill="none" stroke="#555555" d="M358.97,-307.87C368.49,-302.97 378.07,-297.01 386,-290 458.39,-226.01 497.83,-113.38 512.83,-61.96"/>
<polygon fill="#555555" stroke="#555555" points="516.23,-62.82 515.59,-52.24 509.49,-60.91 516.23,-62.82"/>
<text text-anchor="middle" x="484.5" y="-177" font-family="Helvetica,sans-Serif" font-size="10.00">record</text>
</g>
<!-- global -->
<g id="node6" class="node">
<title>global</title>
<path fill="#d5f5e3" stroke="#27ae60" d="M174,-156C174,-156 28,-156 28,-156 22,-156 16,-150 16,-144 16,-144 16,-132 16,-132 16,-126 22,-120 28,-120 28,-120 174,-120 174,-120 180,-120 186,-126 186,-132 186,-132 186,-144 186,-144 186,-150 180,-156 174,-156"/>
<text text-anchor="middle" x="101" y="-141.4" font-family="Helvetica,sans-Serif" font-size="12.00">Global Mapping container</text>
<text text-anchor="middle" x="101" y="-128.4" font-family="Helvetica,sans-Serif" font-size="12.00">Local 3D map builder</text>
</g>
<!-- lio&#45;&gt;global -->
<g id="edge5" class="edge">
<title>lio&#45;&gt;global</title>
<path fill="none" stroke="#555555" d="M254.15,-203C222.35,-189.71 182.34,-172.99 151.19,-159.97"/>
<polygon fill="#555555" stroke="#555555" points="152.4,-156.69 141.83,-156.06 149.7,-163.15 152.4,-156.69"/>
<text text-anchor="middle" x="240.5" y="-177" font-family="Helvetica,sans-Serif" font-size="10.00">scan + pose</text>
</g>
<!-- viz -->
<g id="node7" class="node">
<title>viz</title>
<path fill="#d5f5e3" stroke="#27ae60" d="M387.5,-156C387.5,-156 216.5,-156 216.5,-156 210.5,-156 204.5,-150 204.5,-144 204.5,-144 204.5,-132 204.5,-132 204.5,-126 210.5,-120 216.5,-120 216.5,-120 387.5,-120 387.5,-120 393.5,-120 399.5,-126 399.5,-132 399.5,-132 399.5,-144 399.5,-144 399.5,-150 393.5,-156 387.5,-156"/>
<text text-anchor="middle" x="302" y="-141.4" font-family="Helvetica,sans-Serif" font-size="12.00">Visualizer container</text>
<text text-anchor="middle" x="302" y="-128.4" font-family="Helvetica,sans-Serif" font-size="12.00">Point cloud / trajectory viewer</text>
</g>
<!-- lio&#45;&gt;viz -->
<g id="edge8" class="edge">
<title>lio&#45;&gt;viz</title>
<path fill="none" stroke="#555555" d="M306.42,-202.77C305.65,-191.58 304.71,-178.01 303.89,-166.26"/>
<polygon fill="#555555" stroke="#555555" points="307.37,-165.84 303.19,-156.11 300.39,-166.33 307.37,-165.84"/>
<text text-anchor="middle" x="342" y="-177" font-family="Helvetica,sans-Serif" font-size="10.00">live cloud/pose</text>
</g>
<!-- odom -->
<g id="node9" class="node">
<title>odom</title>
<path fill="#e8daef" stroke="#9b59b6" d="M416.5,-52C416.5,-52 363.5,-52 363.5,-52 357.5,-52 351.5,-46 351.5,-40 351.5,-40 351.5,-28 351.5,-28 351.5,-22 357.5,-16 363.5,-16 363.5,-16 416.5,-16 416.5,-16 422.5,-16 428.5,-22 428.5,-28 428.5,-28 428.5,-40 428.5,-40 428.5,-46 422.5,-52 416.5,-52"/>
<text text-anchor="middle" x="390" y="-30.9" font-family="Helvetica,sans-Serif" font-size="12.00">Odometry</text>
</g>
<!-- lio&#45;&gt;odom -->
<g id="edge6" class="edge">
<title>lio&#45;&gt;odom</title>
<path fill="none" stroke="#555555" d="M364.17,-202.96C382.94,-192.02 401.09,-176.67 409,-156 420.89,-124.93 411.15,-86.65 401.78,-61.57"/>
<polygon fill="#555555" stroke="#555555" points="404.93,-60.01 397.98,-52.01 398.42,-62.59 404.93,-60.01"/>
<text text-anchor="middle" x="442" y="-135.5" font-family="Helvetica,sans-Serif" font-size="10.00">6&#45;DoF pose</text>
</g>
<!-- map -->
<g id="node10" class="node">
<title>map</title>
<path fill="#e8daef" stroke="#9b59b6" d="M321,-52C321,-52 213,-52 213,-52 207,-52 201,-46 201,-40 201,-40 201,-28 201,-28 201,-22 207,-16 213,-16 213,-16 321,-16 321,-16 327,-16 333,-22 333,-28 333,-28 333,-40 333,-40 333,-46 327,-52 321,-52"/>
<text text-anchor="middle" x="267" y="-30.9" font-family="Helvetica,sans-Serif" font-size="12.00">3D Point&#45;cloud Map</text>
</g>
<!-- global&#45;&gt;map -->
<g id="edge7" class="edge">
<title>global&#45;&gt;map</title>
<path fill="none" stroke="#555555" d="M128.78,-119.93C156.67,-102.79 199.79,-76.3 230.44,-57.47"/>
<polygon fill="#555555" stroke="#555555" points="232.44,-60.35 239.12,-52.13 228.77,-54.38 232.44,-60.35"/>
<text text-anchor="middle" x="215.5" y="-94" font-family="Helvetica,sans-Serif" font-size="10.00">registered scans</text>
</g>
<!-- web -->
<g id="node8" class="node">
<title>web</title>
<path fill="#fcf3cf" stroke="#f1c40f" d="M591,-531C591,-531 439,-531 439,-531 433,-531 427,-525 427,-519 427,-519 427,-507 427,-507 427,-501 433,-495 439,-495 439,-495 591,-495 591,-495 597,-495 603,-501 603,-507 603,-507 603,-519 603,-519 603,-525 597,-531 591,-531"/>
<text text-anchor="middle" x="515" y="-516.4" font-family="Helvetica,sans-Serif" font-size="12.00">Collection / Monitor UI</text>
<text text-anchor="middle" x="515" y="-503.4" font-family="Helvetica,sans-Serif" font-size="12.00">Start · Stop · Logs · Record</text>
</g>
<!-- web&#45;&gt;rk3588 -->
<g id="edge10" class="edge">
<title>web&#45;&gt;rk3588</title>
<path fill="none" stroke="#555555" d="M481.69,-494.8C463.42,-485.68 440.23,-474.62 419,-466 406.29,-460.84 392.5,-455.81 379.24,-451.25"/>
<polygon fill="#555555" stroke="#555555" points="380.3,-447.91 369.71,-448.02 378.05,-454.54 380.3,-447.91"/>
<text text-anchor="middle" x="486" y="-469" font-family="Helvetica,sans-Serif" font-size="10.00">control &amp; monitor</text>
</g>
</g>
</svg>
